#!OML:ASF X:\für Bonn\!DataBase\2005_08_12_Daniel\c3d\Daniel.ASF
:FULLY-SPECIFIED
:DEGREES
278
root 1.15021 16.5111 0.190558 -23.7967 -83.9606 12.8839
lowerback 20.4063 -2.32725 0.0335308
upperback 3.74691 -3.33257 -0.72192
thorax -7.37185 -1.71332 0.0890715
lowerneck -7.42879 0.837223 1.38647
upperneck -5.92083 0.829627 -0.739974
head -0.586621 0.315722 -0.435776
rclavicle 1.09797e-014 5.66536e-015
rhumerus -56.2387 -5.57495 -74.9183
rradius 60.6849
rwrist 12.9435
rhand -16.4679 364.851
rfingers 7.12502
rthumb 9.74878 335.096
lclavicle 1.09797e-014 5.66536e-015
lhumerus -237.922 194.922 -84.2422
lradius 88.9435
lwrist 8.57508
lhand 15.7758 8.4909
lfingers 7.12502
lthumb 40.5814 33.5389
rfemur 0.232811 -0.8977 10.6145
rtibia 40.7893
rfoot 331.492 -5.33629
rtoes -15.1984
lfemur -6.6775 -9.03019 -16.4352
ltibia 46.0023
lfoot -29.4624 0.166179
ltoes -2.73207
279
root 1.15413 16.5646 0.15752 -23.4544 -84.246 12.8787
lowerback 19.7351 -2.3029 0.027035
upperback 3.67527 -3.28861 -0.68635
thorax -7.089 -1.69037 0.0918945
lowerneck -6.88869 0.906875 1.57138
upperneck -5.56084 0.938516 -0.817937
head -0.560279 0.37771 -0.489515
rclavicle -9.82431e-015 6.90777e-015
rhumerus -54.8876 -6.207 -75.2877
rradius 60.3795
rwrist 14.431
rhand -16.9864 365.139
rfingers 7.12502
rthumb 9.24843 335.362
lclavicle -9.82431e-015 6.90777e-015
lhumerus -236.786 194.767 -83.9468
lradius 87.7443
lwrist 8.07618
lhand 16.5506 8.12431
lfingers 7.12502
lthumb 41.3092 32.9416
rfemur 0.0508257 -0.803399 10.8829
rtibia 40.2362
rfoot 332.043 -5.39725
rtoes -15.0958
lfemur -6.73525 -9.13888 -16.231
ltibia 45.4613
lfoot -28.989 0.598873
ltoes -2.8592
280
root 1.15569 16.6166 0.123777 -23.413 -84.5094 13.1755
lowerback 19.0388 -2.28181 -0.0484808
upperback 3.58193 -3.26023 -0.63073
thorax -6.80992 -1.67277 0.158874
lowerneck -6.1919 0.995725 1.75608
upperneck -5.28543 1.07573 -0.94118
head -0.584546 0.454038 -0.558299
rclavicle 2.01269e-014 3.97569e-016
rhumerus -53.5852 -6.57437 -75.7766
rradius 60.2054
rwrist 15.4337
rhand -17.4572 365.418
rfingers 7.12502
rthumb 8.7942 335.621
lclavicle 2.01269e-014 3.97569e-016
lhumerus -235.749 194.555 -83.5767
lradius 86.5975
lwrist 7.67827
lhand 17.2389 7.83258
lfingers 7.12502
lthumb 41.9547 32.4378
rfemur -0.114824 -0.757514 11.0939
rtibia 39.6739
rfoot 332.644 -5.39879
rtoes -15.0045
lfemur -6.75782 -9.31982 -16.0732
ltibia 44.893
lfoot -28.5274 0.997865
ltoes -2.84156
281
root 1.15549 16.6665 0.0890851 -24.3352 -84.7574 14.4464
lowerback 18.3056 -2.23684 -0.176037
upperback 3.47794 -3.21256 -0.622124
thorax -6.52112 -1.64511 0.199207
lowerneck -5.49119 1.06239 1.93979
upperneck -4.9378 1.18748 -1.04235
head -0.588152 0.518588 -0.62101
rclavicle -2.08258e-014 2.48481e-016
rhumerus -52.3371 -6.94169 -76.3667
rradius 60.0989
rwrist 15.99
rhand -17.8237 365.918
rfingers 7.12502
rthumb 8.44049 336.107
lclavicle -2.08258e-014 2.48481e-016
lhumerus -234.847 194.46 -83.1982
lradius 85.6097
lwrist 7.27605
lhand 17.8706 7.69205
lfingers 7.12502
lthumb 42.5465 32.0963
rfemur -0.30294 -0.614472 11.2388
rtibia 39.1532
rfoot 333.193 -5.44455
rtoes -14.9648
lfemur -6.77733 -9.4112 -15.9897
ltibia 44.3147
lfoot -28.0488 1.37754
ltoes -2.87662
282
root 1.15402 16.712 0.053205 -25.5715 -84.9931 15.9683
lowerback 17.6184 -2.20558 -0.336762
upperback 3.36341 -3.18644 -0.596662
thorax -6.26407 -1.62709 0.283918
lowerneck -4.86268 1.13498 2.0599
upperneck -4.42825 1.31254 -1.13307
head -0.531012 0.591999 -0.669152
rclavicle -5.45415e-015 -4.67144e-015
rhumerus -51.1373 -7.1652 -77.027
rradius 60.0849
rwrist 16.2501
rhand -18.0572 366.515
rfingers 7.12502
rthumb 8.21511 336.695
lclavicle -5.45415e-015 -4.67144e-015
lhumerus -234.11 194.435 -82.7634
lradius 84.8332
lwrist 7.04698
lhand 18.4656 7.76398
lfingers 7.12502
lthumb 43.1031 31.9734
rfemur -0.428042 -0.432933 11.3785
rtibia 38.6792
rfoot 333.635 -5.4974
rtoes -14.7975
lfemur -6.74224 -9.50652 -15.9194
ltibia 43.7637
lfoot -27.5689 1.72881
ltoes -2.89228
283
root 1.15481 16.7525 0.0185607 -27.5452 -85.257 18.1931
lowerback 17.0093 -2.15342 -0.484775
upperback 3.23232 -3.1315 -0.60175
thorax -6.06818 -1.59511 0.326728
lowerneck -4.25644 1.19943 2.22579
upperneck -3.85974 1.42439 -1.25626
head -0.452163 0.658187 -0.735119
rclavicle -1.83565e-014 4.22417e-015
rhumerus -49.9698 -7.28766 -77.8023
rradius 60.1325
rwrist 16.1415
rhand -18.2389 367.203
rfingers 7.12502
rthumb 8.03972 337.376
lclavicle -1.83565e-014 4.22417e-015
lhumerus -233.519 194.564 -82.3088
lradius 84.3082
lwrist 6.86534
lhand 19.0211 8.04386
lfingers 7.12502
lthumb 43.6221 32.0663
rfemur -0.561711 -0.200557 11.4788
rtibia 38.2568
rfoot 333.971 -5.53649
rtoes -14.5654
lfemur -6.68906 -9.50983 -15.8791
ltibia 43.2624
lfoot -27.1499 2.0668
ltoes -3.05509
284
root 1.15997 16.7884 -0.0145792 -29.9546 -85.5991 20.7316
lowerback 16.6 -2.08916 -0.572894
upperback 3.11093 -3.05199 -0.59897
thorax -5.97184 -1.5522 0.347836
lowerneck -3.64536 1.25878 2.32033
upperneck -3.2991 1.53195 -1.35878
head -0.377363 0.722334 -0.783262
rclavicle -1.22687e-014 3.72721e-015
rhumerus -48.7469 -7.26068 -78.6567
rradius 60.195
rwrist 15.8057
rhand -18.3461 367.827
rfingers 7.12502
rthumb 7.93629 337.996
lclavicle -1.22687e-014 3.72721e-015
lhumerus -232.948 194.746 -81.8372
lradius 83.9306
lwrist 6.79754
lhand 19.5708 8.51037
lfingers 7.12502
lthumb 44.1351 32.3427
rfemur -0.614124 0.0879087 11.6041
rtibia 37.8602
rfoot 334.221 -5.54243
rtoes -14.3808
lfemur -6.5349 -9.44362 -15.824
ltibia 42.8333
lfoot -26.727 2.41877
ltoes -3.24342
285
root 1.16949 16.8213 -0.0450828 -32.8182 -85.9779 23.6673
lowerback 16.3198 -2.01948 -0.617807
upperback 2.98119 -2.95821 -0.579101
thorax -5.9554 -1.50244 0.365898
lowerneck -2.94863 1.3269 2.36104
upperneck -2.85238 1.65245 -1.44786
head -0.351796 0.792107 -0.819704
rclavicle -4.68945e-014 -1.88845e-015
rhumerus -47.5098 -7.01023 -79.5749
rradius 60.2
rwrist 15.2661
rhand -18.5762 368.488
rfingers 7.12502
rthumb 7.71418 338.648
lclavicle -4.68945e-014 -1.88845e-015
lhumerus -232.424 194.884 -81.3183
lradius 83.6516
lwrist 6.69508
lhand 20.1287 8.94697
lfingers 7.12502
lthumb 44.6549 32.5812
rfemur -0.634412 0.446274 11.763
rtibia 37.4769
rfoot 334.412 -5.59823
rtoes -14.3366
lfemur -6.35846 -9.36973 -15.7577
ltibia 42.4764
lfoot -26.3445 2.77708
ltoes -3.42351
286
root 1.18336 16.8503 -0.075406 -35.2237 -86.4359 26.1114
lowerback 16.1646 -1.95743 -0.51824
upperback 2.83468 -2.85115 -0.557178
thorax -6.03149 -1.44807 0.307745
lowerneck -2.30816 1.38634 2.37111
upperneck -2.41241 1.75942 -1.47059
head -0.320336 0.853928 -0.830516
rclavicle 2.33696e-014 1.2921e-015
rhumerus -46.2254 -6.63952 -80.5843
rradius 60.0947
rwrist 14.7615
rhand -18.8974 369.091
rfingers 7.12502
rthumb 7.40414 339.241
lclavicle 2.33696e-014 1.2921e-015
lhumerus -231.997 195.116 -80.8191
lradius 83.4876
lwrist 6.684
lhand 20.599 9.33609
lfingers 7.12502
lthumb 45.0926 32.7991
rfemur -0.633168 0.899321 12.0639
rtibia 37.0811
rfoot 334.569 -5.69922
rtoes -14.119
lfemur -6.19862 -9.25499 -15.5685
ltibia 42.1995
lfoot -25.9684 3.085
ltoes -3.50796
